<svg xmlns="http://www.w3.org/2000/svg" viewBox="0 0 180 48" fill="none">
  <defs>
    <linearGradient id="g" x1="0" y1="0" x2="48" y2="48" gradientUnits="userSpaceOnUse">
      <stop offset="0%" stop-color="#3b82f6"/>
      <stop offset="100%" stop-color="#a855f7"/>
    </linearGradient>
    <linearGradient id="gs" x1="14" y1="8" x2="34" y2="40" gradientUnits="userSpaceOnUse">
      <stop offset="0%" stop-color="#ffffff"/>
      <stop offset="100%" stop-color="rgba(255,255,255,0.85)"/>
    </linearGradient>
    <linearGradient id="gt" x1="60" y1="12" x2="180" y2="36" gradientUnits="userSpaceOnUse">
      <stop offset="0%" stop-color="#ffffff"/>
      <stop offset="100%" stop-color="rgba(255,255,255,0.75)"/>
    </linearGradient>
  </defs>

  <!-- Icon: rounded square + S -->
  <rect width="48" height="48" rx="12" fill="url(#g)"/>
  <path
    d="M 32 16
       C 32 11.6 28.4 8 24 8
       L 20 8
       C 15.6 8 12 11.6 12 16
       C 12 20.4 15.6 24 20 24
       L 28 24
       C 32.4 24 36 27.6 36 32
       C 36 36.4 32.4 40 28 40
       L 24 40
       C 19.6 40 16 36.4 16 32"
    stroke="url(#gs)"
    stroke-width="3.5"
    stroke-linecap="round"
    fill="none"
  />

  <!-- Wordmark: Sofia AI -->
  <text
    x="60"
    y="31"
    font-family="-apple-system, BlinkMacSystemFont, 'Segoe UI', sans-serif"
    font-size="22"
    font-weight="700"
    letter-spacing="-0.5"
    fill="url(#gt)"
  >Sofia AI</text>
</svg>
